<?xml version="1.0" encoding="UTF-8" standalone="no"?>
<!DOCTYPE svg PUBLIC "-//W3C//DTD SVG 1.1//EN" "http://www.w3.org/Graphics/SVG/1.1/DTD/svg11.dtd">
<svg width="100%" height="100%" viewBox="0 0 1542 1535" version="1.1" xmlns="http://www.w3.org/2000/svg" xmlns:xlink="http://www.w3.org/1999/xlink" xml:space="preserve" xmlns:serif="http://www.serif.com/" style="fill-rule:evenodd;clip-rule:evenodd;stroke-linejoin:round;stroke-miterlimit:2;">
    <g transform="matrix(1,0,0,1,-637.884179,0)">
        <g id="Background" transform="matrix(2.75,0,0,2.75,0,0)">
            <path d="M472.5,0L552.5,0C552.978,0.17 553.124,0.88 553.602,1.05C553.816,1.126 555.343,1.055 558.656,2.016C582.511,8.933 590.112,35.906 599.172,57.637C604.002,69.224 651.992,184.333 659.27,202.592C684.029,264.705 697.655,289.264 695.722,298.544C691.477,318.932 674.085,317.225 668.5,317.258C650.741,317.365 514.972,318.178 446.513,317.298C444.998,317.279 443.968,317.038 443.938,314.494C443.847,306.969 444.148,307.032 444.013,299.535C443.707,282.604 423.686,297.918 417.188,302.006C369.435,332.043 362.77,335.272 360.969,337.859C354.811,346.703 366.385,351.781 369.421,353.636C387.683,364.796 431.747,392.695 434.488,393.539C448.862,397.963 442.17,370.677 444.509,368.513C444.75,368.29 444.833,368.088 652.502,368.124C705.61,368.133 715.75,365.492 731.037,382.914C734.402,386.749 737.654,390.456 758.025,440.7C791.471,523.196 793.445,523.148 792.07,532.447C789.401,550.506 776.174,555.371 771.5,557.999L703.5,557.999C703.013,557.788 702.889,557.057 702.402,556.846C696.434,554.259 677.592,552.762 664.839,520.371C637.354,450.561 636.059,449.32 631.277,444.743C617.93,431.965 611.15,435.508 554.498,434.958C543.619,434.853 543.63,435.089 418.501,435.018C390.334,435.002 387.154,445.175 367.341,494.433C353.582,528.638 351.354,540.79 330.275,553.098C324.988,556.184 324.261,554.461 318.5,557.999L253.5,557.999C247.789,555.051 233.973,551.033 231.991,530.484C231.086,521.105 248.92,484.254 267.091,439.309C273.959,422.32 325.198,299.243 326.048,297.314C327.458,294.109 333.764,273.703 355.403,266.221C359.027,264.968 359.149,264.794 507.5,264.733C544.871,264.717 545.729,264.843 545.806,266.445C546.436,279.454 541.423,299.692 563.838,284.954C580.275,274.147 627.342,247.153 629.698,242.608C634.174,233.969 623.217,230.363 600.795,216.04C597.22,213.757 559.537,189.687 555.514,188.455C550.566,186.941 545.966,190.683 545.851,196.514C545.536,212.499 546.619,213.497 544.395,214.023C543.99,214.119 544.03,214.1 475.5,214.109C390.476,214.119 390.459,214.048 387.607,213.133C385.321,212.399 368.372,206.962 371.892,187.57C372.376,184.903 404.263,109.182 410.619,93.558C438.207,25.751 439.214,24.399 443.093,19.194C456.42,1.311 469.858,1.518 471.376,1.011C471.854,0.851 472.022,0.16 472.5,0Z" style="fill:rgb(31,48,97);"/>
        </g>
    </g>
</svg>
