<?xml version="1.0" encoding="UTF-8" standalone="no"?>
<!DOCTYPE svg PUBLIC "-//W3C//DTD SVG 1.1//EN" "http://www.w3.org/Graphics/SVG/1.1/DTD/svg11.dtd">
<svg width="100%" height="100%" viewBox="0 0 1456 1713" version="1.1" xmlns="http://www.w3.org/2000/svg" xmlns:xlink="http://www.w3.org/1999/xlink" xml:space="preserve" xmlns:serif="http://www.serif.com/" style="fill-rule:evenodd;clip-rule:evenodd;stroke-linejoin:round;stroke-miterlimit:2;">
    <g transform="matrix(1,0,0,1,-296.137107,-167.864945)">
        <g id="Background" transform="matrix(2,0,0,2,0,0)">
            <path d="M508.512,324.091C531.715,324.129 544.56,321.325 544.751,346.497C544.849,359.354 544.738,396.181 544.725,400.501C544.507,473.072 547.658,479.355 528.911,509.768C526.773,513.237 424.971,682.582 390.868,737.73C378.353,757.968 378.753,791.886 419.503,792.144C420.865,792.153 727.86,792.213 738.49,792.105C742.549,792.064 742.51,792.612 746.552,792.121C748.617,791.869 748.551,792.594 772.505,792.005C777.774,791.875 858.984,792.222 866.504,792.254C872.88,792.281 876.908,790.766 875.711,799.526C867.386,860.469 860.364,903.03 811.342,928.19C784.434,942 759.031,940.08 715.501,940.06C226.253,939.84 226.014,941.951 208.593,938.005C162.898,927.657 122.506,869.068 168.053,802.166C180.054,784.538 180.447,784.833 320.968,583.816C329.488,571.628 414.382,450.185 427.678,431.612C432.458,424.936 432.036,424.672 486.645,347.604C499.49,329.475 502.268,324.117 505.488,324.078C506.496,324.066 507.504,324.103 508.512,324.091Z" style="fill:white;"/>
            <path d="M164.332,179.458C165.944,172.623 176.348,128.511 211.418,105.372C238.582,87.449 259.622,83.695 289.5,83.944C302.035,84.048 757.501,83.905 774.501,84.028C824.322,84.387 843.185,125.18 827.478,168.492C823.929,178.277 823.501,178.203 753.914,275.812C715.966,329.04 716.233,329.219 712.877,333.806C684.679,372.354 686.044,373.217 657.92,411.808C639.541,437.027 640.429,437.599 638.638,439.63C635.772,442.878 624.12,460.424 622.28,462.314C620.885,463.747 611.29,464.966 611.176,461.545C610.86,452.06 611.046,345.627 611.071,344.493C611.528,323.194 622.915,325.085 631.571,323.859C643.236,322.207 647.521,302.398 633.352,296.903C626.928,294.412 525.459,296.976 524.456,295.536C523.421,294.051 567.923,233.873 567.24,232.562C566.258,230.679 565.628,231.829 560.5,231.88C534.855,232.134 349.819,231.898 331.499,231.875C156.368,231.651 156.157,231.89 155.669,231.345C154.938,230.528 158.013,204.911 164.332,179.458Z" style="fill:white;"/>
            <path d="M598.501,587.503C602.241,591.636 603.216,589.247 608.743,590.1C610.385,590.353 610.369,589.66 629.505,589.564C629.715,589.563 629.679,589.651 631.856,590.73C632.909,593.696 644.985,591.922 645.5,592.162C645.997,592.394 645.954,593.42 646.5,593.467C647.057,593.515 647.2,592.309 647.757,592.357C650.888,597.872 663.566,618.885 664.953,621.184C676.761,641.984 734.86,736.618 736.674,744.458C740.231,759.829 727.31,763.34 725.589,763.808C721.178,765.007 721.102,765.383 591.499,765.334C439.752,765.276 438.394,765.557 434.446,764.756C403.739,758.531 426.17,730.951 433.05,719.262C436.469,713.454 470.008,656.474 475.925,646.745C502.756,602.624 502.058,602.255 504.673,598.611C509.7,591.607 511.794,609.28 550.434,604.13C575.351,598.727 574.127,595.221 598.501,587.503Z" style="fill:white;"/>
            <path d="M598.501,587.503C620.426,581.758 627.899,583.627 642.625,588.217C639.897,590.013 639.818,589.923 636.498,589.601C633.366,589.298 632.133,590.467 631.856,590.73C629.679,589.651 629.715,589.563 629.505,589.564C610.369,589.66 610.385,590.353 608.743,590.1C603.216,589.247 602.241,591.636 598.501,587.503Z" style="fill:white;"/>
            <path d="M642.625,588.217C645.681,589.679 645.853,589.477 647.757,592.357C647.2,592.309 647.057,593.515 646.5,593.467C645.954,593.42 645.997,592.394 645.5,592.162C644.985,591.922 632.909,593.696 631.856,590.73C632.133,590.467 633.366,589.298 636.498,589.601C639.818,589.923 639.897,590.013 642.625,588.217Z" style="fill:white;"/>
            <path d="M480.324,647.483C480.48,651.66 480.73,651.629 480.33,654.44C480.096,656.092 478.205,656.104 478.315,653.467C478.462,649.959 477.267,649.151 480.324,647.483Z" style="fill:white;"/>
            <path d="M671.58,642.489C673.696,644.261 675.013,643.899 674.156,646.492C672.325,652.032 671.609,642.869 671.58,642.489Z" style="fill:white;"/>
            <path d="M383.318,499.5C383.412,499.837 384.524,500.23 384.141,502.436C383.785,504.487 382.731,504.964 381.791,503.183C381.348,502.342 381.716,502.402 383.318,499.5Z" style="fill:white;"/>
        </g>
    </g>
</svg>
